<mxfile host="Electron" modified="2024-03-16T07:32:53.651Z" agent="Mozilla/5.0 (Windows NT 10.0; Win64; x64) AppleWebKit/537.36 (KHTML, like Gecko) draw.io/23.1.5 Chrome/120.0.6099.109 Electron/28.1.0 Safari/537.36" etag="XN5Kd9zqZe_XwHDJ7TLs" version="23.1.5" type="device">
  <diagram name="Страница — 1" id="EQ2OE8ALPf1RlmZPFgjo">
    <mxGraphModel dx="1434" dy="836" grid="1" gridSize="10" guides="1" tooltips="1" connect="1" arrows="1" fold="1" page="1" pageScale="1" pageWidth="827" pageHeight="1169" math="0" shadow="0">
      <root>
        <mxCell id="0" />
        <mxCell id="1" parent="0" />
        <mxCell id="38HP3IzOZBY9DrxJzYLU-1" value="" style="shape=umlLifeline;perimeter=lifelinePerimeter;whiteSpace=wrap;html=1;container=1;dropTarget=0;collapsible=0;recursiveResize=0;outlineConnect=0;portConstraint=eastwest;newEdgeStyle={&quot;curved&quot;:0,&quot;rounded&quot;:0};participant=umlActor;" parent="1" vertex="1">
          <mxGeometry x="70" y="80" width="20" height="960" as="geometry" />
        </mxCell>
        <mxCell id="38HP3IzOZBY9DrxJzYLU-4" value="" style="html=1;points=[[0,0,0,0,5],[0,1,0,0,-5],[1,0,0,0,5],[1,1,0,0,-5]];perimeter=orthogonalPerimeter;outlineConnect=0;targetShapes=umlLifeline;portConstraint=eastwest;newEdgeStyle={&quot;curved&quot;:0,&quot;rounded&quot;:0};" parent="38HP3IzOZBY9DrxJzYLU-1" vertex="1">
          <mxGeometry x="5" y="50" width="10" height="900" as="geometry" />
        </mxCell>
        <mxCell id="38HP3IzOZBY9DrxJzYLU-2" value="Гость" style="text;html=1;align=center;verticalAlign=middle;whiteSpace=wrap;rounded=0;" parent="1" vertex="1">
          <mxGeometry x="30" y="110" width="60" height="30" as="geometry" />
        </mxCell>
        <mxCell id="38HP3IzOZBY9DrxJzYLU-3" value=":GUI" style="shape=umlLifeline;perimeter=lifelinePerimeter;whiteSpace=wrap;html=1;container=1;dropTarget=0;collapsible=0;recursiveResize=0;outlineConnect=0;portConstraint=eastwest;newEdgeStyle={&quot;curved&quot;:0,&quot;rounded&quot;:0};" parent="1" vertex="1">
          <mxGeometry x="230" y="80" width="100" height="960" as="geometry" />
        </mxCell>
        <mxCell id="38HP3IzOZBY9DrxJzYLU-5" value="" style="html=1;points=[[0,0,0,0,5],[0,1,0,0,-5],[1,0,0,0,5],[1,1,0,0,-5]];perimeter=orthogonalPerimeter;outlineConnect=0;targetShapes=umlLifeline;portConstraint=eastwest;newEdgeStyle={&quot;curved&quot;:0,&quot;rounded&quot;:0};" parent="38HP3IzOZBY9DrxJzYLU-3" vertex="1">
          <mxGeometry x="45" y="50" width="10" height="40" as="geometry" />
        </mxCell>
        <mxCell id="38HP3IzOZBY9DrxJzYLU-16" value="" style="html=1;points=[[0,0,0,0,5],[0,1,0,0,-5],[1,0,0,0,5],[1,1,0,0,-5]];perimeter=orthogonalPerimeter;outlineConnect=0;targetShapes=umlLifeline;portConstraint=eastwest;newEdgeStyle={&quot;curved&quot;:0,&quot;rounded&quot;:0};" parent="38HP3IzOZBY9DrxJzYLU-3" vertex="1">
          <mxGeometry x="45" y="110" width="10" height="340" as="geometry" />
        </mxCell>
        <mxCell id="38HP3IzOZBY9DrxJzYLU-28" value="" style="html=1;points=[[0,0,0,0,5],[0,1,0,0,-5],[1,0,0,0,5],[1,1,0,0,-5]];perimeter=orthogonalPerimeter;outlineConnect=0;targetShapes=umlLifeline;portConstraint=eastwest;newEdgeStyle={&quot;curved&quot;:0,&quot;rounded&quot;:0};" parent="38HP3IzOZBY9DrxJzYLU-3" vertex="1">
          <mxGeometry x="51" y="230" width="10" height="40" as="geometry" />
        </mxCell>
        <mxCell id="38HP3IzOZBY9DrxJzYLU-29" value="деактивировать&lt;br&gt;кнопку&lt;br&gt;&quot;Зарегистрироваться&quot;" style="html=1;align=left;spacingLeft=2;endArrow=block;rounded=0;edgeStyle=orthogonalEdgeStyle;curved=0;rounded=0;" parent="38HP3IzOZBY9DrxJzYLU-3" source="38HP3IzOZBY9DrxJzYLU-16" target="38HP3IzOZBY9DrxJzYLU-28" edge="1">
          <mxGeometry relative="1" as="geometry">
            <mxPoint x="56" y="210" as="sourcePoint" />
            <Array as="points">
              <mxPoint x="86" y="210" />
              <mxPoint x="86" y="250" />
            </Array>
          </mxGeometry>
        </mxCell>
        <mxCell id="38HP3IzOZBY9DrxJzYLU-38" value="" style="html=1;points=[[0,0,0,0,5],[0,1,0,0,-5],[1,0,0,0,5],[1,1,0,0,-5]];perimeter=orthogonalPerimeter;outlineConnect=0;targetShapes=umlLifeline;portConstraint=eastwest;newEdgeStyle={&quot;curved&quot;:0,&quot;rounded&quot;:0};" parent="38HP3IzOZBY9DrxJzYLU-3" vertex="1">
          <mxGeometry x="45" y="470" width="10" height="480" as="geometry" />
        </mxCell>
        <mxCell id="38HP3IzOZBY9DrxJzYLU-9" value="Переход к регистрации" style="html=1;verticalAlign=bottom;endArrow=block;curved=0;rounded=0;entryX=0;entryY=0;entryDx=0;entryDy=5;entryPerimeter=0;" parent="1" source="38HP3IzOZBY9DrxJzYLU-4" target="38HP3IzOZBY9DrxJzYLU-5" edge="1">
          <mxGeometry relative="1" as="geometry">
            <mxPoint x="340" y="295" as="sourcePoint" />
            <mxPoint x="410" y="295" as="targetPoint" />
          </mxGeometry>
        </mxCell>
        <mxCell id="38HP3IzOZBY9DrxJzYLU-10" value=":Валидатор GUI" style="shape=umlLifeline;perimeter=lifelinePerimeter;whiteSpace=wrap;html=1;container=1;dropTarget=0;collapsible=0;recursiveResize=0;outlineConnect=0;portConstraint=eastwest;newEdgeStyle={&quot;curved&quot;:0,&quot;rounded&quot;:0};" parent="1" vertex="1">
          <mxGeometry x="430" y="80" width="100" height="960" as="geometry" />
        </mxCell>
        <mxCell id="38HP3IzOZBY9DrxJzYLU-20" value="" style="html=1;points=[[0,0,0,0,5],[0,1,0,0,-5],[1,0,0,0,5],[1,1,0,0,-5]];perimeter=orthogonalPerimeter;outlineConnect=0;targetShapes=umlLifeline;portConstraint=eastwest;newEdgeStyle={&quot;curved&quot;:0,&quot;rounded&quot;:0};" parent="38HP3IzOZBY9DrxJzYLU-10" vertex="1">
          <mxGeometry x="45" y="120" width="10" height="40" as="geometry" />
        </mxCell>
        <mxCell id="38HP3IzOZBY9DrxJzYLU-15" value="Форма регистрации" style="html=1;verticalAlign=bottom;endArrow=open;dashed=1;endSize=8;curved=0;rounded=0;exitX=0;exitY=1;exitDx=0;exitDy=-5;exitPerimeter=0;" parent="1" source="38HP3IzOZBY9DrxJzYLU-5" target="38HP3IzOZBY9DrxJzYLU-4" edge="1">
          <mxGeometry relative="1" as="geometry">
            <mxPoint x="100" y="170" as="targetPoint" />
            <mxPoint x="170" y="170" as="sourcePoint" />
          </mxGeometry>
        </mxCell>
        <mxCell id="38HP3IzOZBY9DrxJzYLU-17" value="Заполнение полей" style="html=1;verticalAlign=bottom;endArrow=block;curved=0;rounded=0;entryX=0;entryY=0;entryDx=0;entryDy=5;entryPerimeter=0;" parent="1" source="38HP3IzOZBY9DrxJzYLU-4" target="38HP3IzOZBY9DrxJzYLU-16" edge="1">
          <mxGeometry relative="1" as="geometry">
            <mxPoint x="95" y="145" as="sourcePoint" />
            <mxPoint x="245" y="145" as="targetPoint" />
          </mxGeometry>
        </mxCell>
        <mxCell id="38HP3IzOZBY9DrxJzYLU-21" value="Валидация полей" style="html=1;verticalAlign=bottom;endArrow=block;curved=0;rounded=0;entryX=0;entryY=0;entryDx=0;entryDy=5;entryPerimeter=0;" parent="1" source="38HP3IzOZBY9DrxJzYLU-16" target="38HP3IzOZBY9DrxJzYLU-20" edge="1">
          <mxGeometry relative="1" as="geometry">
            <mxPoint x="245" y="205" as="sourcePoint" />
            <mxPoint x="570" y="365" as="targetPoint" />
          </mxGeometry>
        </mxCell>
        <mxCell id="38HP3IzOZBY9DrxJzYLU-22" value="Результат валидации" style="html=1;verticalAlign=bottom;endArrow=open;dashed=1;endSize=8;curved=0;rounded=0;exitX=0;exitY=1;exitDx=0;exitDy=-5;exitPerimeter=0;" parent="1" source="38HP3IzOZBY9DrxJzYLU-20" target="38HP3IzOZBY9DrxJzYLU-16" edge="1">
          <mxGeometry relative="1" as="geometry">
            <mxPoint x="245" y="235" as="targetPoint" />
            <mxPoint x="330" y="240" as="sourcePoint" />
          </mxGeometry>
        </mxCell>
        <mxCell id="38HP3IzOZBY9DrxJzYLU-23" value="&lt;b&gt;alt&lt;/b&gt;" style="shape=umlFrame;whiteSpace=wrap;html=1;pointerEvents=0;width=40;height=20;" parent="1" vertex="1">
          <mxGeometry x="100" y="240" width="370" height="290" as="geometry" />
        </mxCell>
        <mxCell id="38HP3IzOZBY9DrxJzYLU-24" value="[поле невалидно]" style="text;html=1;align=center;verticalAlign=middle;whiteSpace=wrap;rounded=0;" parent="1" vertex="1">
          <mxGeometry x="100" y="250" width="100" height="30" as="geometry" />
        </mxCell>
        <mxCell id="38HP3IzOZBY9DrxJzYLU-26" value="&lt;b&gt;opt&lt;/b&gt;" style="shape=umlFrame;whiteSpace=wrap;html=1;pointerEvents=0;width=40;height=20;" parent="1" vertex="1">
          <mxGeometry x="110" y="280" width="350" height="80" as="geometry" />
        </mxCell>
        <mxCell id="38HP3IzOZBY9DrxJzYLU-27" value="[кнопка &quot;Зарегистрироваться&quot;&lt;br style=&quot;border-color: var(--border-color);&quot;&gt;активна]" style="text;html=1;align=center;verticalAlign=middle;whiteSpace=wrap;rounded=0;" parent="1" vertex="1">
          <mxGeometry x="130" y="300" width="100" height="30" as="geometry" />
        </mxCell>
        <mxCell id="38HP3IzOZBY9DrxJzYLU-30" value="Сообщить об ошибке" style="html=1;verticalAlign=bottom;endArrow=open;dashed=1;endSize=8;curved=0;rounded=0;exitX=0;exitY=1;exitDx=0;exitDy=-5;exitPerimeter=0;" parent="1" edge="1">
          <mxGeometry relative="1" as="geometry">
            <mxPoint x="85" y="380" as="targetPoint" />
            <mxPoint x="275" y="380" as="sourcePoint" />
          </mxGeometry>
        </mxCell>
        <mxCell id="38HP3IzOZBY9DrxJzYLU-31" value="" style="endArrow=none;dashed=1;html=1;rounded=0;exitX=-0.005;exitY=0.542;exitDx=0;exitDy=0;exitPerimeter=0;entryX=1.005;entryY=0.542;entryDx=0;entryDy=0;entryPerimeter=0;" parent="1" source="38HP3IzOZBY9DrxJzYLU-23" target="38HP3IzOZBY9DrxJzYLU-23" edge="1">
          <mxGeometry width="50" height="50" relative="1" as="geometry">
            <mxPoint x="420" y="330" as="sourcePoint" />
            <mxPoint x="470" y="280" as="targetPoint" />
          </mxGeometry>
        </mxCell>
        <mxCell id="38HP3IzOZBY9DrxJzYLU-32" value="[поле валидно]" style="text;html=1;align=center;verticalAlign=middle;whiteSpace=wrap;rounded=0;" parent="1" vertex="1">
          <mxGeometry x="100" y="400" width="100" height="30" as="geometry" />
        </mxCell>
        <mxCell id="38HP3IzOZBY9DrxJzYLU-33" value="" style="html=1;points=[[0,0,0,0,5],[0,1,0,0,-5],[1,0,0,0,5],[1,1,0,0,-5]];perimeter=orthogonalPerimeter;outlineConnect=0;targetShapes=umlLifeline;portConstraint=eastwest;newEdgeStyle={&quot;curved&quot;:0,&quot;rounded&quot;:0};" parent="1" vertex="1">
          <mxGeometry x="281" y="450" width="10" height="40" as="geometry" />
        </mxCell>
        <mxCell id="38HP3IzOZBY9DrxJzYLU-34" value="активировать&lt;br&gt;кнопку&lt;br&gt;&quot;Зарегистрироваться&quot;" style="html=1;align=left;spacingLeft=2;endArrow=block;rounded=0;edgeStyle=orthogonalEdgeStyle;curved=0;rounded=0;" parent="1" target="38HP3IzOZBY9DrxJzYLU-33" edge="1">
          <mxGeometry relative="1" as="geometry">
            <mxPoint x="285" y="430" as="sourcePoint" />
            <Array as="points">
              <mxPoint x="316" y="430" />
              <mxPoint x="316" y="470" />
            </Array>
          </mxGeometry>
        </mxCell>
        <mxCell id="38HP3IzOZBY9DrxJzYLU-35" value="&lt;b&gt;opt&lt;/b&gt;" style="shape=umlFrame;whiteSpace=wrap;html=1;pointerEvents=0;width=40;height=20;" parent="1" vertex="1">
          <mxGeometry x="110" y="420" width="350" height="80" as="geometry" />
        </mxCell>
        <mxCell id="38HP3IzOZBY9DrxJzYLU-36" value="[вся поля заполнены валидно]" style="text;html=1;align=center;verticalAlign=middle;whiteSpace=wrap;rounded=0;" parent="1" vertex="1">
          <mxGeometry x="100" y="445" width="100" height="30" as="geometry" />
        </mxCell>
        <mxCell id="38HP3IzOZBY9DrxJzYLU-37" value="Отобразить поле" style="html=1;verticalAlign=bottom;endArrow=open;dashed=1;endSize=8;curved=0;rounded=0;exitX=0;exitY=1;exitDx=0;exitDy=-5;exitPerimeter=0;" parent="1" source="38HP3IzOZBY9DrxJzYLU-16" target="38HP3IzOZBY9DrxJzYLU-4" edge="1">
          <mxGeometry relative="1" as="geometry">
            <mxPoint x="85" y="520" as="targetPoint" />
            <mxPoint x="275" y="520" as="sourcePoint" />
          </mxGeometry>
        </mxCell>
        <mxCell id="38HP3IzOZBY9DrxJzYLU-39" value="Нажать на &quot;Зарегистрироваться&quot;" style="html=1;verticalAlign=bottom;endArrow=block;curved=0;rounded=0;entryX=0;entryY=0;entryDx=0;entryDy=5;entryPerimeter=0;" parent="1" source="38HP3IzOZBY9DrxJzYLU-4" target="38HP3IzOZBY9DrxJzYLU-38" edge="1">
          <mxGeometry relative="1" as="geometry">
            <mxPoint x="85" y="565" as="sourcePoint" />
            <mxPoint x="410" y="725" as="targetPoint" />
          </mxGeometry>
        </mxCell>
        <mxCell id="38HP3IzOZBY9DrxJzYLU-41" value=":Обработчик команд" style="shape=umlLifeline;perimeter=lifelinePerimeter;whiteSpace=wrap;html=1;container=1;dropTarget=0;collapsible=0;recursiveResize=0;outlineConnect=0;portConstraint=eastwest;newEdgeStyle={&quot;curved&quot;:0,&quot;rounded&quot;:0};" parent="1" vertex="1">
          <mxGeometry x="630" y="80" width="100" height="960" as="geometry" />
        </mxCell>
        <mxCell id="38HP3IzOZBY9DrxJzYLU-42" value="" style="html=1;points=[[0,0,0,0,5],[0,1,0,0,-5],[1,0,0,0,5],[1,1,0,0,-5]];perimeter=orthogonalPerimeter;outlineConnect=0;targetShapes=umlLifeline;portConstraint=eastwest;newEdgeStyle={&quot;curved&quot;:0,&quot;rounded&quot;:0};" parent="38HP3IzOZBY9DrxJzYLU-41" vertex="1">
          <mxGeometry x="45" y="480" width="10" height="330" as="geometry" />
        </mxCell>
        <mxCell id="38HP3IzOZBY9DrxJzYLU-43" value="HTTP-запрос" style="html=1;verticalAlign=bottom;endArrow=block;curved=0;rounded=0;entryX=0;entryY=0;entryDx=0;entryDy=5;entryPerimeter=0;" parent="1" source="38HP3IzOZBY9DrxJzYLU-38" target="38HP3IzOZBY9DrxJzYLU-42" edge="1">
          <mxGeometry x="-0.7179" y="5" relative="1" as="geometry">
            <mxPoint x="370" y="584" as="sourcePoint" />
            <mxPoint x="560" y="584" as="targetPoint" />
            <mxPoint as="offset" />
          </mxGeometry>
        </mxCell>
        <mxCell id="38HP3IzOZBY9DrxJzYLU-44" value=":Валидатор сервера" style="shape=umlLifeline;perimeter=lifelinePerimeter;whiteSpace=wrap;html=1;container=1;dropTarget=0;collapsible=0;recursiveResize=0;outlineConnect=0;portConstraint=eastwest;newEdgeStyle={&quot;curved&quot;:0,&quot;rounded&quot;:0};" parent="1" vertex="1">
          <mxGeometry x="830" y="80" width="100" height="960" as="geometry" />
        </mxCell>
        <mxCell id="38HP3IzOZBY9DrxJzYLU-45" value="" style="html=1;points=[[0,0,0,0,5],[0,1,0,0,-5],[1,0,0,0,5],[1,1,0,0,-5]];perimeter=orthogonalPerimeter;outlineConnect=0;targetShapes=umlLifeline;portConstraint=eastwest;newEdgeStyle={&quot;curved&quot;:0,&quot;rounded&quot;:0};" parent="38HP3IzOZBY9DrxJzYLU-44" vertex="1">
          <mxGeometry x="45" y="490" width="10" height="160" as="geometry" />
        </mxCell>
        <mxCell id="38HP3IzOZBY9DrxJzYLU-46" value="Валидация запроса" style="html=1;verticalAlign=bottom;endArrow=block;curved=0;rounded=0;entryX=0;entryY=0;entryDx=0;entryDy=5;entryPerimeter=0;" parent="1" edge="1">
          <mxGeometry x="-0.4211" relative="1" as="geometry">
            <mxPoint x="685" y="576" as="sourcePoint" />
            <mxPoint x="875" y="576" as="targetPoint" />
            <mxPoint as="offset" />
          </mxGeometry>
        </mxCell>
        <mxCell id="38HP3IzOZBY9DrxJzYLU-47" value=":Коннектор с БД" style="shape=umlLifeline;perimeter=lifelinePerimeter;whiteSpace=wrap;html=1;container=1;dropTarget=0;collapsible=0;recursiveResize=0;outlineConnect=0;portConstraint=eastwest;newEdgeStyle={&quot;curved&quot;:0,&quot;rounded&quot;:0};" parent="1" vertex="1">
          <mxGeometry x="1030" y="80" width="100" height="960" as="geometry" />
        </mxCell>
        <mxCell id="38HP3IzOZBY9DrxJzYLU-48" value="" style="html=1;points=[[0,0,0,0,5],[0,1,0,0,-5],[1,0,0,0,5],[1,1,0,0,-5]];perimeter=orthogonalPerimeter;outlineConnect=0;targetShapes=umlLifeline;portConstraint=eastwest;newEdgeStyle={&quot;curved&quot;:0,&quot;rounded&quot;:0};" parent="38HP3IzOZBY9DrxJzYLU-47" vertex="1">
          <mxGeometry x="45" y="501" width="10" height="60" as="geometry" />
        </mxCell>
        <mxCell id="38HP3IzOZBY9DrxJzYLU-49" value=":БД" style="shape=umlLifeline;perimeter=lifelinePerimeter;whiteSpace=wrap;html=1;container=1;dropTarget=0;collapsible=0;recursiveResize=0;outlineConnect=0;portConstraint=eastwest;newEdgeStyle={&quot;curved&quot;:0,&quot;rounded&quot;:0};" parent="1" vertex="1">
          <mxGeometry x="1230" y="80" width="100" height="960" as="geometry" />
        </mxCell>
        <mxCell id="38HP3IzOZBY9DrxJzYLU-58" value="" style="html=1;points=[[0,0,0,0,5],[0,1,0,0,-5],[1,0,0,0,5],[1,1,0,0,-5]];perimeter=orthogonalPerimeter;outlineConnect=0;targetShapes=umlLifeline;portConstraint=eastwest;newEdgeStyle={&quot;curved&quot;:0,&quot;rounded&quot;:0};" parent="38HP3IzOZBY9DrxJzYLU-49" vertex="1">
          <mxGeometry x="45" y="511" width="10" height="40" as="geometry" />
        </mxCell>
        <mxCell id="38HP3IzOZBY9DrxJzYLU-69" value="" style="html=1;points=[[0,0,0,0,5],[0,1,0,0,-5],[1,0,0,0,5],[1,1,0,0,-5]];perimeter=orthogonalPerimeter;outlineConnect=0;targetShapes=umlLifeline;portConstraint=eastwest;newEdgeStyle={&quot;curved&quot;:0,&quot;rounded&quot;:0};" parent="38HP3IzOZBY9DrxJzYLU-49" vertex="1">
          <mxGeometry x="-155" y="730" width="10" height="60" as="geometry" />
        </mxCell>
        <mxCell id="38HP3IzOZBY9DrxJzYLU-70" value="" style="html=1;points=[[0,0,0,0,5],[0,1,0,0,-5],[1,0,0,0,5],[1,1,0,0,-5]];perimeter=orthogonalPerimeter;outlineConnect=0;targetShapes=umlLifeline;portConstraint=eastwest;newEdgeStyle={&quot;curved&quot;:0,&quot;rounded&quot;:0};" parent="38HP3IzOZBY9DrxJzYLU-49" vertex="1">
          <mxGeometry x="45" y="740" width="10" height="40" as="geometry" />
        </mxCell>
        <mxCell id="38HP3IzOZBY9DrxJzYLU-72" value="Вставка пользователя" style="html=1;verticalAlign=bottom;endArrow=block;curved=0;rounded=0;entryX=0;entryY=0;entryDx=0;entryDy=5;entryPerimeter=0;" parent="38HP3IzOZBY9DrxJzYLU-49" source="38HP3IzOZBY9DrxJzYLU-69" target="38HP3IzOZBY9DrxJzYLU-70" edge="1">
          <mxGeometry x="-0.2105" y="5" relative="1" as="geometry">
            <mxPoint x="-335" y="745" as="sourcePoint" />
            <mxPoint x="-145" y="745" as="targetPoint" />
            <mxPoint as="offset" />
          </mxGeometry>
        </mxCell>
        <mxCell id="38HP3IzOZBY9DrxJzYLU-73" value="Ответ" style="html=1;verticalAlign=bottom;endArrow=open;dashed=1;endSize=8;curved=0;rounded=0;exitX=0;exitY=1;exitDx=0;exitDy=-5;exitPerimeter=0;" parent="38HP3IzOZBY9DrxJzYLU-49" source="38HP3IzOZBY9DrxJzYLU-70" target="38HP3IzOZBY9DrxJzYLU-69" edge="1">
          <mxGeometry x="0.2105" relative="1" as="geometry">
            <mxPoint x="-1135" y="325" as="targetPoint" />
            <mxPoint x="-945" y="325" as="sourcePoint" />
            <mxPoint as="offset" />
          </mxGeometry>
        </mxCell>
        <mxCell id="38HP3IzOZBY9DrxJzYLU-51" value="Проверка наличия email" style="html=1;verticalAlign=bottom;endArrow=block;curved=0;rounded=0;entryX=0;entryY=0;entryDx=0;entryDy=5;entryPerimeter=0;" parent="1" target="38HP3IzOZBY9DrxJzYLU-48" edge="1">
          <mxGeometry x="-0.2105" y="5" relative="1" as="geometry">
            <mxPoint x="885" y="586" as="sourcePoint" />
            <mxPoint x="885" y="586" as="targetPoint" />
            <mxPoint as="offset" />
          </mxGeometry>
        </mxCell>
        <mxCell id="38HP3IzOZBY9DrxJzYLU-59" value="Запрос количества&lt;br&gt;записей с таким email" style="html=1;verticalAlign=bottom;endArrow=block;curved=0;rounded=0;entryX=0;entryY=0;entryDx=0;entryDy=5;entryPerimeter=0;" parent="1" source="38HP3IzOZBY9DrxJzYLU-48" target="38HP3IzOZBY9DrxJzYLU-58" edge="1">
          <mxGeometry x="-0.2105" y="5" relative="1" as="geometry">
            <mxPoint x="895" y="596" as="sourcePoint" />
            <mxPoint x="1085" y="596" as="targetPoint" />
            <mxPoint as="offset" />
          </mxGeometry>
        </mxCell>
        <mxCell id="38HP3IzOZBY9DrxJzYLU-60" value="Ответ" style="html=1;verticalAlign=bottom;endArrow=open;dashed=1;endSize=8;curved=0;rounded=0;exitX=0;exitY=1;exitDx=0;exitDy=-5;exitPerimeter=0;" parent="1" edge="1">
          <mxGeometry x="0.2105" relative="1" as="geometry">
            <mxPoint x="1085" y="627" as="targetPoint" />
            <mxPoint x="1275" y="627" as="sourcePoint" />
            <mxPoint as="offset" />
          </mxGeometry>
        </mxCell>
        <mxCell id="38HP3IzOZBY9DrxJzYLU-61" value="Ответ" style="html=1;verticalAlign=bottom;endArrow=open;dashed=1;endSize=8;curved=0;rounded=0;exitX=0;exitY=1;exitDx=0;exitDy=-5;exitPerimeter=0;" parent="1" edge="1">
          <mxGeometry x="0.2105" relative="1" as="geometry">
            <mxPoint x="885" y="637" as="targetPoint" />
            <mxPoint x="1075" y="637" as="sourcePoint" />
            <mxPoint as="offset" />
          </mxGeometry>
        </mxCell>
        <mxCell id="38HP3IzOZBY9DrxJzYLU-62" value="&lt;b&gt;alt&lt;/b&gt;" style="shape=umlFrame;whiteSpace=wrap;html=1;pointerEvents=0;width=40;height=20;" parent="1" vertex="1">
          <mxGeometry x="490" y="652" width="830" height="228" as="geometry" />
        </mxCell>
        <mxCell id="38HP3IzOZBY9DrxJzYLU-63" value="[email есть в системе]" style="text;html=1;align=center;verticalAlign=middle;whiteSpace=wrap;rounded=0;" parent="1" vertex="1">
          <mxGeometry x="490" y="672" width="70" height="30" as="geometry" />
        </mxCell>
        <mxCell id="38HP3IzOZBY9DrxJzYLU-64" value="Ошибка валидации" style="html=1;verticalAlign=bottom;endArrow=open;dashed=1;endSize=8;curved=0;rounded=0;" parent="1" edge="1">
          <mxGeometry x="0.3158" relative="1" as="geometry">
            <mxPoint x="685" y="672" as="targetPoint" />
            <mxPoint x="875" y="672" as="sourcePoint" />
            <mxPoint as="offset" />
          </mxGeometry>
        </mxCell>
        <mxCell id="38HP3IzOZBY9DrxJzYLU-66" value="" style="endArrow=none;dashed=1;html=1;rounded=0;exitX=0;exitY=0.285;exitDx=0;exitDy=0;exitPerimeter=0;entryX=1.003;entryY=0.285;entryDx=0;entryDy=0;entryPerimeter=0;" parent="1" edge="1">
          <mxGeometry width="50" height="50" relative="1" as="geometry">
            <mxPoint x="490" y="702" as="sourcePoint" />
            <mxPoint x="1322.4899999999998" y="702" as="targetPoint" />
          </mxGeometry>
        </mxCell>
        <mxCell id="38HP3IzOZBY9DrxJzYLU-67" value="[else]" style="text;html=1;align=center;verticalAlign=middle;whiteSpace=wrap;rounded=0;" parent="1" vertex="1">
          <mxGeometry x="490" y="712" width="50" height="30" as="geometry" />
        </mxCell>
        <mxCell id="38HP3IzOZBY9DrxJzYLU-68" value="Успех" style="html=1;verticalAlign=bottom;endArrow=open;dashed=1;endSize=8;curved=0;rounded=0;exitX=0;exitY=1;exitDx=0;exitDy=-5;exitPerimeter=0;" parent="1" source="38HP3IzOZBY9DrxJzYLU-45" target="38HP3IzOZBY9DrxJzYLU-42" edge="1">
          <mxGeometry x="0.5263" relative="1" as="geometry">
            <mxPoint x="685" y="747" as="targetPoint" />
            <mxPoint x="875" y="747" as="sourcePoint" />
            <mxPoint as="offset" />
          </mxGeometry>
        </mxCell>
        <mxCell id="38HP3IzOZBY9DrxJzYLU-71" value="Запись пользователя в БД" style="html=1;verticalAlign=bottom;endArrow=block;curved=0;rounded=0;entryX=0;entryY=0;entryDx=0;entryDy=5;entryPerimeter=0;" parent="1" target="38HP3IzOZBY9DrxJzYLU-69" edge="1">
          <mxGeometry x="-0.6154" y="5" relative="1" as="geometry">
            <mxPoint x="685" y="815" as="sourcePoint" />
            <mxPoint x="885" y="815" as="targetPoint" />
            <mxPoint as="offset" />
          </mxGeometry>
        </mxCell>
        <mxCell id="38HP3IzOZBY9DrxJzYLU-74" value="Ответ" style="html=1;verticalAlign=bottom;endArrow=open;dashed=1;endSize=8;curved=0;rounded=0;exitX=0;exitY=1;exitDx=0;exitDy=-5;exitPerimeter=0;" parent="1" source="38HP3IzOZBY9DrxJzYLU-69" edge="1">
          <mxGeometry x="0.2105" relative="1" as="geometry">
            <mxPoint x="685" y="865" as="targetPoint" />
            <mxPoint x="1070" y="865" as="sourcePoint" />
            <mxPoint as="offset" />
          </mxGeometry>
        </mxCell>
        <mxCell id="38HP3IzOZBY9DrxJzYLU-75" value="Ответ" style="html=1;verticalAlign=bottom;endArrow=open;dashed=1;endSize=8;curved=0;rounded=0;exitX=0;exitY=1;exitDx=0;exitDy=-5;exitPerimeter=0;" parent="1" source="38HP3IzOZBY9DrxJzYLU-42" target="38HP3IzOZBY9DrxJzYLU-38" edge="1">
          <mxGeometry x="0.8205" relative="1" as="geometry">
            <mxPoint x="285" y="866" as="targetPoint" />
            <mxPoint x="675" y="866" as="sourcePoint" />
            <mxPoint as="offset" />
          </mxGeometry>
        </mxCell>
        <mxCell id="38HP3IzOZBY9DrxJzYLU-84" value="&lt;b&gt;alt&lt;/b&gt;" style="shape=umlFrame;whiteSpace=wrap;html=1;pointerEvents=0;width=40;height=20;" parent="1" vertex="1">
          <mxGeometry y="900" width="470" height="120" as="geometry" />
        </mxCell>
        <mxCell id="38HP3IzOZBY9DrxJzYLU-85" value="&lt;span style=&quot;color: rgb(0, 0, 0); font-family: Helvetica; font-size: 12px; font-style: normal; font-variant-ligatures: normal; font-variant-caps: normal; font-weight: 400; letter-spacing: normal; orphans: 2; text-align: center; text-indent: 0px; text-transform: none; widows: 2; word-spacing: 0px; -webkit-text-stroke-width: 0px; background-color: rgb(251, 251, 251); text-decoration-thickness: initial; text-decoration-style: initial; text-decoration-color: initial; float: none; display: inline !important;&quot;&gt;[успех]&lt;/span&gt;" style="text;whiteSpace=wrap;html=1;" parent="1" vertex="1">
          <mxGeometry y="920" width="40" height="30" as="geometry" />
        </mxCell>
        <mxCell id="38HP3IzOZBY9DrxJzYLU-86" value="" style="html=1;points=[[0,0,0,0,5],[0,1,0,0,-5],[1,0,0,0,5],[1,1,0,0,-5]];perimeter=orthogonalPerimeter;outlineConnect=0;targetShapes=umlLifeline;portConstraint=eastwest;newEdgeStyle={&quot;curved&quot;:0,&quot;rounded&quot;:0};" parent="1" vertex="1">
          <mxGeometry x="281" y="928" width="10" height="40" as="geometry" />
        </mxCell>
        <mxCell id="38HP3IzOZBY9DrxJzYLU-87" value="переход на форму входа" style="html=1;align=left;spacingLeft=2;endArrow=block;rounded=0;edgeStyle=orthogonalEdgeStyle;curved=0;rounded=0;" parent="1" target="38HP3IzOZBY9DrxJzYLU-86" edge="1">
          <mxGeometry relative="1" as="geometry">
            <mxPoint x="285" y="908" as="sourcePoint" />
            <Array as="points">
              <mxPoint x="316" y="908" />
              <mxPoint x="316" y="948" />
            </Array>
          </mxGeometry>
        </mxCell>
        <mxCell id="38HP3IzOZBY9DrxJzYLU-88" value="" style="endArrow=none;dashed=1;html=1;rounded=0;exitX=0.001;exitY=0.777;exitDx=0;exitDy=0;exitPerimeter=0;entryX=1;entryY=0.777;entryDx=0;entryDy=0;entryPerimeter=0;" parent="1" edge="1">
          <mxGeometry width="50" height="50" relative="1" as="geometry">
            <mxPoint x="0.4699999999999136" y="986.2399999999998" as="sourcePoint" />
            <mxPoint x="470" y="986.2399999999998" as="targetPoint" />
          </mxGeometry>
        </mxCell>
        <mxCell id="38HP3IzOZBY9DrxJzYLU-89" value="Отобразить страницу" style="html=1;verticalAlign=bottom;endArrow=open;dashed=1;endSize=8;curved=0;rounded=0;" parent="1" edge="1">
          <mxGeometry relative="1" as="geometry">
            <mxPoint x="85" y="977" as="targetPoint" />
            <mxPoint x="275" y="977" as="sourcePoint" />
          </mxGeometry>
        </mxCell>
        <mxCell id="38HP3IzOZBY9DrxJzYLU-90" value="Сообщить об ошибке" style="html=1;verticalAlign=bottom;endArrow=open;dashed=1;endSize=8;curved=0;rounded=0;exitX=0;exitY=1;exitDx=0;exitDy=-5;exitPerimeter=0;" parent="1" edge="1">
          <mxGeometry relative="1" as="geometry">
            <mxPoint x="85" y="1007" as="targetPoint" />
            <mxPoint x="275" y="1007" as="sourcePoint" />
          </mxGeometry>
        </mxCell>
        <mxCell id="EJo-EXhbGYXTc_HGR9MS-1" value="&lt;span style=&quot;color: rgb(0, 0, 0); font-family: Helvetica; font-size: 12px; font-style: normal; font-variant-ligatures: normal; font-variant-caps: normal; font-weight: 400; letter-spacing: normal; orphans: 2; text-align: center; text-indent: 0px; text-transform: none; widows: 2; word-spacing: 0px; -webkit-text-stroke-width: 0px; background-color: rgb(251, 251, 251); text-decoration-thickness: initial; text-decoration-style: initial; text-decoration-color: initial; float: none; display: inline !important;&quot;&gt;[else]&lt;/span&gt;" style="text;whiteSpace=wrap;html=1;" parent="1" vertex="1">
          <mxGeometry y="990" width="40" height="30" as="geometry" />
        </mxCell>
        <mxCell id="EJo-EXhbGYXTc_HGR9MS-2" value="" style="html=1;points=[[0,0,0,0,5],[0,1,0,0,-5],[1,0,0,0,5],[1,1,0,0,-5]];perimeter=orthogonalPerimeter;outlineConnect=0;targetShapes=umlLifeline;portConstraint=eastwest;newEdgeStyle={&quot;curved&quot;:0,&quot;rounded&quot;:0};" parent="1" vertex="1">
          <mxGeometry x="680" y="756" width="10" height="40" as="geometry" />
        </mxCell>
        <mxCell id="EJo-EXhbGYXTc_HGR9MS-3" value="вычисление хэша" style="html=1;align=left;spacingLeft=2;endArrow=block;rounded=0;edgeStyle=orthogonalEdgeStyle;curved=0;rounded=0;" parent="1" target="EJo-EXhbGYXTc_HGR9MS-2" edge="1">
          <mxGeometry relative="1" as="geometry">
            <mxPoint x="684" y="736" as="sourcePoint" />
            <Array as="points">
              <mxPoint x="715" y="736" />
              <mxPoint x="715" y="776" />
            </Array>
          </mxGeometry>
        </mxCell>
        <mxCell id="EtlOj6NcMShnd-KGC2VK-1" value="&lt;b&gt;alt&lt;/b&gt;" style="shape=umlFrame;whiteSpace=wrap;html=1;pointerEvents=0;width=40;height=20;" vertex="1" parent="1">
          <mxGeometry y="180" width="520" height="360" as="geometry" />
        </mxCell>
        <mxCell id="EtlOj6NcMShnd-KGC2VK-2" value="[пока хотя бы одно поле невалидно]" style="text;html=1;align=center;verticalAlign=middle;whiteSpace=wrap;rounded=0;" vertex="1" parent="1">
          <mxGeometry y="220" width="70" height="30" as="geometry" />
        </mxCell>
      </root>
    </mxGraphModel>
  </diagram>
</mxfile>
